<svg xmlns="http://www.w3.org/2000/svg"  viewBox="0 0 48 48" width="48px" height="48px" baseProfile="basic"><path fill="#18a497" d="M34,42H14c-4.411,0-8-3.589-8-8V14c0-4.411,3.589-8,8-8h20c4.411,0,8,3.589,8,8v20	C42,38.411,38.411,42,34,42z"/><path fill="#fff" d="M16,26.75c0-5.88,4.654-10.753,10.432-10.753c3.465,0,6.266,2.853,6.266,6.379	c0,3.528-2.801,6.379-6.266,6.379c-1.157,0-2.089-0.953-2.089-2.126c0-1.177,0.931-2.126,2.089-2.126	c1.155,0,2.089-0.953,2.089-2.128c0-1.177-0.931-2.126-2.089-2.126c-3.467,0-6.266,2.851-6.266,6.379s2.796,6.377,6.266,6.377	c5.775,0,10.443-4.755,10.443-10.632c0-5.88-4.668-10.632-10.443-10.632C18.346,11.742,12,18.394,12,26.627v0.128v14.981	C12.641,41.903,13.308,42,14,42h2V26.861V26.75z"/></svg>