<?xml version="1.0" encoding="UTF-8" standalone="no"?>
<svg
   width="98"
   height="96"
   version="1.1"
   id="svg1"
   sodipodi:docname="github.svg"
   inkscape:version="1.4 (e7c3feb100, 2024-10-09)"
   xmlns:inkscape="http://www.inkscape.org/namespaces/inkscape"
   xmlns:sodipodi="http://sodipodi.sourceforge.net/DTD/sodipodi-0.dtd"
   xmlns="http://www.w3.org/2000/svg"
   xmlns:svg="http://www.w3.org/2000/svg">
  <defs
     id="defs1" />
  <sodipodi:namedview
     id="namedview1"
     pagecolor="#505050"
     bordercolor="#eeeeee"
     borderopacity="1"
     inkscape:showpageshadow="0"
     inkscape:pageopacity="0"
     inkscape:pagecheckerboard="0"
     inkscape:deskcolor="#505050"
     inkscape:zoom="4.0584983"
     inkscape:cx="18.972535"
     inkscape:cy="40.03944"
     inkscape:window-width="1270"
     inkscape:window-height="758"
     inkscape:window-x="0"
     inkscape:window-y="0"
     inkscape:window-maximized="1"
     inkscape:current-layer="svg1" />
  <g
     id="g3"
     transform="matrix(0.98693006,0,0,0.98693006,0.7649527,-0.47253281)">
    <path
       d="M 49.132461,1.5501467 A 46.987084,47.557796 0 0 0 2.1453515,49.107994 46.987084,47.557796 0 0 0 49.132461,96.665842 46.987084,47.557796 0 0 0 96.119572,49.107994 46.987084,47.557796 0 0 0 49.132461,1.5501467 Z"
       id="path3"
       style="stroke-width:0.998426" />
    <path
       fill-rule="evenodd"
       clip-rule="evenodd"
       d="m 49.140558,1.7247759 c -26.083452,0 -47.1693856,21.2413821 -47.1693856,47.5198691 0,21.005796 13.5104846,38.786765 32.2531076,45.080007 2.343311,0.473103 3.201656,-1.022483 3.201656,-2.280552 0,-1.101656 -0.07724,-4.877794 -0.07724,-8.812277 C 24.227314,86.064651 21.4949,77.567132 21.4949,77.567132 c -2.10869,-5.507311 -5.233104,-6.92276 -5.233104,-6.92276 -4.294621,-2.911034 0.312827,-2.911034 0.312827,-2.911034 4.763863,0.314758 7.263588,4.877793 7.263588,4.877793 4.216414,7.237519 11.01076,5.192553 13.74414,3.933518 0.390069,-3.068414 1.640414,-5.192552 2.968,-6.372415 -10.465244,-1.101655 -21.476004,-5.192552 -21.476004,-23.445658 0,-5.192553 1.873104,-9.440829 4.841104,-12.74483 -0.468276,-1.179862 -2.10869,-6.058621 0.469242,-12.588415 0,0 3.982759,-1.259035 12.963036,4.877793 a 45.350352,45.350352 0 0 1 11.792829,-1.573793 c 3.98276,0 8.04276,0.551311 11.791864,1.573793 8.981243,-6.136828 12.964002,-4.877793 12.964002,-4.877793 2.577932,6.529794 0.936552,11.408553 0.468276,12.588415 3.046207,3.304001 4.84207,7.552277 4.84207,12.74483 0,18.253106 -11.010761,22.264831 -21.55421,23.445658 1.718621,1.494621 3.201655,4.326484 3.201655,8.811312 0,6.372415 -0.07724,11.48676 -0.07724,13.059588 0,1.259035 0.85931,2.754621 3.201656,2.282483 C 82.721253,88.030444 96.231738,70.250441 96.231738,49.244645 96.308979,22.966158 75.145804,1.7247759 49.140558,1.7247759 Z"
       fill="#ffffff"
       id="path1"
       style="stroke-width:0.965517" />
  </g>
</svg>
